<svg xmlns="http://www.w3.org/2000/svg" xmlns:xlink="http://www.w3.org/1999/xlink" width="159.475" height="123.686" viewBox="0 0 159.475 123.686"><defs><linearGradient id="a" x1="0.822" y1="0.228" x2="0.294" y2="1.025" gradientUnits="objectBoundingBox"><stop offset="0" stop-color="#0496ff"/><stop offset="0.909" stop-color="#56cbff"/></linearGradient></defs><g transform="translate(-409.999 -22)"><path d="M161.914,82.455l-9.63,11.476a8.344,8.344,0,0,1-11.755,1.028h0A8.343,8.343,0,0,1,139.5,83.205l9.63-11.477A8.343,8.343,0,0,1,160.885,70.7h0A8.344,8.344,0,0,1,161.914,82.455Zm-41-44.84h0a8.344,8.344,0,0,0-11.755,1.028L71.772,83.205A8.344,8.344,0,0,0,72.8,94.959h0a8.344,8.344,0,0,0,11.755-1.028l37.391-44.562A8.343,8.343,0,0,0,120.919,37.615ZM141.71,54.826h0a8.343,8.343,0,0,0-11.754,1.028l-25.225,28.43a8.344,8.344,0,0,0,1.029,11.755h0a8.343,8.343,0,0,0,11.754-1.029l25.225-28.429A8.344,8.344,0,0,0,141.71,54.826Z" transform="translate(373.18 -13.663)" fill="url(#a)"/><g transform="translate(374.857 -13.663)"><path d="M35.142,114.5h1.4l3.165,9.992h.065s-.409-4.157-.409-5.47V114.5h1.68v14.643h-1.4l-3.165-9.992h-.065s.409,4.113.409,5.448v4.544H35.142Z" fill="#fff"/><path d="M46.64,123.334a15.264,15.264,0,0,1,.409-4.824,2.387,2.387,0,0,1,2.326-1.162A2.388,2.388,0,0,1,51.7,118.51c.387.861.408,3.6.408,5.211h-3.79a22.745,22.745,0,0,0,.152,3.683c.107.452.474.581.9.581s.8-.129.9-.581a15.524,15.524,0,0,0,.151-2.476h1.679a10.474,10.474,0,0,1-.408,3.251,2.374,2.374,0,0,1-2.326,1.142,2.353,2.353,0,0,1-2.326-1.142C46.661,127.275,46.64,125.66,46.64,123.334Zm3.79-.862a28.276,28.276,0,0,0-.151-3.23.831.831,0,0,0-.9-.56c-.409,0-.8.13-.9.56a20.017,20.017,0,0,0-.152,3.23Z" fill="#fff"/><path d="M57.062,117.519h1.7l.8,5.3c.086.624.345,4.07.345,4.07h.15s.258-3.446.345-4.07l.9-5.3h1.378l.905,5.3c.108.624.345,4.07.345,4.07h.128s.259-3.446.367-4.07l.8-5.3h1.7l-1.873,11.629H63.286l-.948-5.362c-.086-.473-.3-3.252-.3-3.252H61.95s-.237,2.779-.323,3.252l-.926,5.362H58.914Z" fill="#fff"/><path d="M73.169,115.926h-1.68V114.5H76.55v1.421h-1.7v13.222h-1.68Z" fill="#fff"/><path d="M80.685,123.334a15.3,15.3,0,0,1,.408-4.824,2.909,2.909,0,0,1,4.652,0c.388.861.409,3.6.409,5.211h-3.79a22.894,22.894,0,0,0,.151,3.683c.107.452.474.581.9.581s.8-.129.9-.581a15.424,15.424,0,0,0,.152-2.476h1.679a10.449,10.449,0,0,1-.409,3.251,2.94,2.94,0,0,1-4.652,0C80.706,127.275,80.685,125.66,80.685,123.334Zm3.79-.862a28.46,28.46,0,0,0-.152-3.23.83.83,0,0,0-.9-.56c-.409,0-.8.13-.9.56a20.046,20.046,0,0,0-.151,3.23Z" fill="#fff"/><path d="M91.537,123.334a15.264,15.264,0,0,1,.409-4.824,2.909,2.909,0,0,1,4.652,0,13.547,13.547,0,0,1,.408,4.264H95.327a24.908,24.908,0,0,0-.151-3.532.832.832,0,0,0-.9-.56c-.41,0-.8.13-.905.56a28.887,28.887,0,0,0-.151,4.092,25.4,25.4,0,0,0,.151,4.07.995.995,0,0,0,1.809,0,17.286,17.286,0,0,0,.151-2.692h1.679a10.174,10.174,0,0,1-.408,3.445,2.906,2.906,0,0,1-4.652,0A15.107,15.107,0,0,1,91.537,123.334Z" fill="#fff"/><path d="M102.605,113.643h1.68v4.824h.064a1.826,1.826,0,0,1,1.831-1.119c1.27,0,1.895.86,1.895,2.131v9.669h-1.68v-9.324c0-.711-.28-1.142-.9-1.142-.711,0-1.206.539-1.206,1.422v9.044h-1.68Z" fill="#fff"/><path d="M121.877,114.5h1.83l2.176,14.643h-1.7l-.365-2.756h-2.047l-.365,2.756h-1.7Zm1.787,10.552-.366-2.5c-.193-1.293-.43-4.8-.43-4.8h-.151s-.237,3.51-.431,4.8l-.366,2.5Z" fill="#fff"/><path d="M130.835,123.334a15.264,15.264,0,0,1,.409-4.824,2.909,2.909,0,0,1,4.652,0,13.547,13.547,0,0,1,.408,4.264h-1.679a24.908,24.908,0,0,0-.151-3.532.831.831,0,0,0-.9-.56c-.409,0-.8.13-.9.56a28.7,28.7,0,0,0-.152,4.092,25.255,25.255,0,0,0,.152,4.07.994.994,0,0,0,1.808,0,17.286,17.286,0,0,0,.151-2.692H136.3a10.174,10.174,0,0,1-.408,3.445,2.906,2.906,0,0,1-4.652,0A15.107,15.107,0,0,1,130.835,123.334Z" fill="#fff"/><path d="M141.688,125.94a6.849,6.849,0,0,1,.237-2.11,1.788,1.788,0,0,1,1.894-1.185,1.682,1.682,0,0,1,1.615.8l.044-.021v-.883a21.264,21.264,0,0,0-.151-3.273.822.822,0,0,0-.9-.582.811.811,0,0,0-.9.582,14.281,14.281,0,0,0-.151,2.563h-1.679a9.973,9.973,0,0,1,.365-3.338,2.986,2.986,0,0,1,4.7,0,13.555,13.555,0,0,1,.408,4.048v6.611h-.882l-.389-1.076H145.8a1.814,1.814,0,0,1-1.874,1.249,1.791,1.791,0,0,1-1.916-1.1A6.155,6.155,0,0,1,141.688,125.94Zm2.734,2.045a.873.873,0,0,0,.9-.645,5.987,5.987,0,0,0,.151-1.4,6.158,6.158,0,0,0-.129-1.421.836.836,0,0,0-.927-.625.851.851,0,0,0-.926.625,6.642,6.642,0,0,0-.129,1.421,7.813,7.813,0,0,0,.129,1.4A.837.837,0,0,0,144.422,127.985Z" fill="#fff"/><path d="M152.649,123.334a20.99,20.99,0,0,1,.323-4.8,1.7,1.7,0,0,1,1.787-1.184,1.5,1.5,0,0,1,1.615.925h.065v-4.63h1.679v15.5h-.882l-.389-1.119h-.107a1.758,1.758,0,0,1-1.831,1.292,1.779,1.779,0,0,1-1.895-1.121A17.2,17.2,0,0,1,152.649,123.334Zm2.713,4.651a.836.836,0,0,0,.861-.667,23.268,23.268,0,0,0,.216-3.984,19.629,19.629,0,0,0-.216-4,.841.841,0,0,0-.882-.647.815.815,0,0,0-.841.668,25.45,25.45,0,0,0-.172,3.984,22.664,22.664,0,0,0,.172,3.984A.808.808,0,0,0,155.362,127.985Z" fill="#fff"/><path d="M163.717,123.334a15.3,15.3,0,0,1,.408-4.824,2.909,2.909,0,0,1,4.652,0c.388.861.409,3.6.409,5.211H165.4a22.894,22.894,0,0,0,.151,3.683c.107.452.474.581.9.581s.8-.129.9-.581a15.423,15.423,0,0,0,.152-2.476h1.679a10.449,10.449,0,0,1-.409,3.251,2.94,2.94,0,0,1-4.652,0C163.738,127.275,163.717,125.66,163.717,123.334Zm3.79-.862a28.462,28.462,0,0,0-.152-3.23.83.83,0,0,0-.9-.56c-.409,0-.8.13-.9.56a20.047,20.047,0,0,0-.151,3.23Z" fill="#fff"/><path d="M174.784,117.519h.883l.388,1.142h.065a1.737,1.737,0,0,1,1.851-1.313,1.687,1.687,0,0,1,1.7,1.076h.043a1.665,1.665,0,0,1,1.658-1.076,1.815,1.815,0,0,1,1.9,2.067v9.733h-1.68V119.76c0-.668-.215-1.078-.754-1.078-.581,0-.969.539-.969,1.486v8.98h-1.679V119.76c0-.668-.216-1.078-.754-1.078-.6,0-.969.539-.969,1.486v8.98h-1.68Z" fill="#fff"/><path d="M190.934,128.933l-2.5-11.414h1.7l1.1,5.449c.173.84.324,2.972.324,2.972h.107s.237-2.347.345-2.972l.9-5.449h1.7L191.6,133.67h-1.68Z" fill="#fff"/></g><g transform="translate(354.416 -13.663)"><text transform="translate(85.584 148.905)" fill="#fff" font-size="8" font-family="Helvetica"><tspan x="0" y="0">powered by </tspan></text><path d="M115.847,138.627V154.36h6.462l2.593,4.489,2.591-4.489h42.294V138.627Z" transform="translate(15.216 0)" fill="none" stroke="#fff" stroke-miterlimit="10" stroke-width="0.5"/><g transform="translate(135.4 140.497)"><path d="M120.916,141.894l.513,2.629c.132.671.263,1.38.36,2.115h.027c.132-.735.316-1.472.472-2.1l.685-2.642h1.576l.644,2.562c.18.721.343,1.442.475,2.183h.024c.092-.735.223-1.457.36-2.2l.562-2.549h1.965l-1.965,6.427h-1.886l-.6-2.261c-.157-.631-.276-1.21-.408-2h-.027a14.863,14.863,0,0,1-.419,2l-.644,2.261h-1.879l-1.868-6.427Z" transform="translate(-118.879 -139.092)" fill="#fff"/><path d="M129.818,148.365l-.119-.649h-.039a2.315,2.315,0,0,1-1.841.794,1.97,1.97,0,0,1-2.075-1.972c0-1.669,1.5-2.47,3.771-2.457v-.093c0-.342-.18-.828-1.17-.828a3.6,3.6,0,0,0-1.775.486l-.36-1.287a5.3,5.3,0,0,1,2.5-.565,2.5,2.5,0,0,1,2.826,2.773V146.8a9.7,9.7,0,0,0,.092,1.565Zm-.237-3.036c-1.054-.013-1.865.236-1.865,1.013a.717.717,0,0,0,.788.762,1.1,1.1,0,0,0,1.04-.738,1.438,1.438,0,0,0,.037-.342Z" transform="translate(-115.925 -139.135)" fill="#fff"/><path d="M132.147,141.894l.512,2.629c.132.671.263,1.38.369,2.115h.026c.132-.735.315-1.472.473-2.1l.691-2.642h1.576l.645,2.562c.18.721.34,1.442.472,2.183h.027c.093-.735.225-1.457.36-2.2l.553-2.549H139.8l-1.967,6.427h-1.879l-.6-2.261c-.159-.631-.276-1.21-.408-2h-.027a15.621,15.621,0,0,1-.419,2l-.644,2.261h-1.882l-1.865-6.427Z" transform="translate(-114.047 -139.092)" fill="#fff"/><path d="M139.414,140.946a1,1,0,0,1-1.08,1,.975.975,0,0,1-1.035-.914c0-.029,0-.056,0-.084a.975.975,0,0,1,1.051-1.01,1,1,0,0,1,1.064.934A.675.675,0,0,1,139.414,140.946Zm-2.064,8.218v-6.427h2v6.427Z" transform="translate(-110.955 -139.935)" fill="#fff"/><path d="M141.216,141.894l.513,2.629c.132.671.263,1.38.36,2.115h.027c.13-.735.316-1.472.472-2.1l.7-2.642h1.579l.644,2.562c.17.721.342,1.442.473,2.183h.026c.092-.735.223-1.457.36-2.2l.554-2.549h1.951l-1.968,6.427h-1.879l-.6-2.261c-.159-.631-.276-1.21-.408-2h-.027a14.65,14.65,0,0,1-.419,2l-.642,2.261h-1.882l-1.865-6.427Z" transform="translate(-110.145 -139.092)" fill="#fff"/><path d="M150.121,148.367l-.119-.649h-.04a2.311,2.311,0,0,1-1.841.789,1.969,1.969,0,0,1-2.075-1.971c0-1.669,1.5-2.471,3.771-2.459v-.092c0-.343-.18-.83-1.17-.83a3.619,3.619,0,0,0-1.775.486l-.36-1.286a5.294,5.294,0,0,1,2.5-.566,2.5,2.5,0,0,1,2.825,2.773V146.8a9.858,9.858,0,0,0,.092,1.563Zm-.235-3.036c-1.051-.013-1.865.236-1.865,1.013a.717.717,0,0,0,.787.762,1.09,1.09,0,0,0,1.038-.738,1.371,1.371,0,0,0,.04-.342Z" transform="translate(-107.191 -139.137)" fill="#fff"/></g></g></g></svg>